<svg xmlns="http://www.w3.org/2000/svg" viewBox="0 0 900 1600" preserveAspectRatio="xMidYMid slice">
  <defs>
    <linearGradient id="sky" x1="0" y1="0" x2="0" y2="1">
      <stop offset="0" stop-color="#24113f"/>
      <stop offset="0.54" stop-color="#140b25"/>
      <stop offset="1" stop-color="#07040e"/>
    </linearGradient>
    <radialGradient id="glow" cx="50%" cy="18%" r="55%">
      <stop offset="0" stop-color="#ffd88a" stop-opacity="0.34"/>
      <stop offset="0.42" stop-color="#9b7cff" stop-opacity="0.18"/>
      <stop offset="1" stop-color="#000000" stop-opacity="0"/>
    </radialGradient>
  </defs>
  <rect width="900" height="1600" fill="url(#sky)"/>
  <rect width="900" height="1600" fill="url(#glow)"/>
  <g opacity="0.24">
    <path d="M80 220h170v980H80zM650 220h170v980H650z" fill="#3b2466"/>
    <path d="M120 280h90M120 360h90M120 440h90M120 520h90M690 280h90M690 360h90M690 440h90M690 520h90" stroke="#ffd88a" stroke-width="12" stroke-linecap="round"/>
    <path d="M450 120c125 125 170 310 170 540H280c0-230 45-415 170-540z" fill="#10091e" stroke="#ffd88a" stroke-opacity="0.28" stroke-width="8"/>
    <path d="M110 1260h680l-110 230H220z" fill="#0b0613"/>
  </g>
  <g opacity="0.55" fill="#fff8ee">
    <circle cx="140" cy="170" r="3"/><circle cx="760" cy="260" r="4"/><circle cx="520" cy="95" r="3"/><circle cx="310" cy="210" r="2"/><circle cx="680" cy="120" r="2"/><circle cx="220" cy="340" r="3"/>
  </g>
</svg>
