<svg xmlns="http://www.w3.org/2000/svg" width="1080" height="1920" viewBox="0 0 1080 1920" role="img" aria-label="dream garden lobby background">
  <defs>
    <linearGradient id="bg" x1="0" x2="0" y1="0" y2="1">
      <stop offset="0" stop-color="#5b9dff"/>
      <stop offset="0.42" stop-color="#9c7dff"/>
      <stop offset="1" stop-color="#2a164d"/>
    </linearGradient>
    <linearGradient id="road" x1="0" x2="0" y1="0" y2="1">
      <stop offset="0" stop-color="#ffe69e"/>
      <stop offset="1" stop-color="#ff9fc6"/>
    </linearGradient>
    <filter id="blur"><feGaussianBlur stdDeviation="12"/></filter>
  </defs>
  <rect width="1080" height="1920" fill="url(#bg)"/>
  <circle cx="830" cy="220" r="126" fill="#fff1a7" opacity=".78"/>
  <circle cx="830" cy="220" r="190" fill="#fff1a7" opacity=".16"/>
  <g fill="#fff" opacity=".34" filter="url(#blur)">
    <ellipse cx="172" cy="320" rx="176" ry="54"/>
    <ellipse cx="258" cy="288" rx="96" ry="44"/>
    <ellipse cx="735" cy="458" rx="216" ry="66"/>
    <ellipse cx="620" cy="424" rx="104" ry="46"/>
  </g>
  <path d="M-100 920C180 690 352 760 540 896c178 130 354 130 640-84v1160H-100z" fill="#4fd4ad"/>
  <path d="M-100 1040c320-160 522-96 700 46 154 124 312 138 580 10v880H-100z" fill="#3e83d9" opacity=".62"/>
  <path d="M500 1920c-110-260-52-522 38-782 78 242 160 526 66 782z" fill="url(#road)" opacity=".88"/>
  <g transform="translate(156 590)">
    <path d="M118 478V206c0-82 70-150 156-150h258c86 0 156 68 156 150v272z" fill="#ffcb78"/>
    <path d="M170 478V230c0-54 46-98 104-98h258c58 0 104 44 104 98v248z" fill="#805ad5"/>
    <path d="M228 478V264c0-22 18-40 40-40h270c22 0 40 18 40 40v214z" fill="#3e2668"/>
    <rect x="250" y="258" width="78" height="220" rx="20" fill="#ff8fbd"/>
    <rect x="354" y="258" width="78" height="220" rx="20" fill="#8de8ff"/>
    <rect x="458" y="258" width="78" height="220" rx="20" fill="#fff09a"/>
    <path d="M84 478h638c34 0 62 28 62 62v58H22v-58c0-34 28-62 62-62z" fill="#5c3a9e"/>
  </g>
  <g opacity=".85">
    <circle cx="120" cy="1310" r="28" fill="#fff09a"/>
    <circle cx="185" cy="1268" r="18" fill="#ff91c8"/>
    <circle cx="896" cy="1244" r="30" fill="#ff91c8"/>
    <circle cx="970" cy="1318" r="22" fill="#fff09a"/>
    <circle cx="760" cy="1394" r="18" fill="#95ffd0"/>
  </g>
  <rect width="1080" height="1920" fill="#170d2f" opacity=".16"/>
</svg>
