<svg xmlns="http://www.w3.org/2000/svg" viewBox="0 0 1080 1920" role="img" aria-label="Dream Library world map background">
  <defs>
    <linearGradient id="sky" x1="0" y1="0" x2="0" y2="1">
      <stop offset="0" stop-color="#6c55d9"/>
      <stop offset="0.42" stop-color="#9f7ee8"/>
      <stop offset="1" stop-color="#ffcf9f"/>
    </linearGradient>
    <radialGradient id="glow" cx="50%" cy="20%" r="70%">
      <stop offset="0" stop-color="#fff5b8" stop-opacity=".72"/>
      <stop offset=".48" stop-color="#ffd1f0" stop-opacity=".28"/>
      <stop offset="1" stop-color="#3b236a" stop-opacity="0"/>
    </radialGradient>
    <filter id="soft"><feGaussianBlur stdDeviation="9"/></filter>
  </defs>
  <rect width="1080" height="1920" fill="url(#sky)"/>
  <rect width="1080" height="1920" fill="url(#glow)"/>
  <circle cx="835" cy="190" r="112" fill="#fff0a8" opacity=".75"/>
  <g opacity=".58" fill="#fff9ff" filter="url(#soft)">
    <ellipse cx="190" cy="270" rx="130" ry="45"/>
    <ellipse cx="285" cy="250" rx="90" ry="52"/>
    <ellipse cx="780" cy="470" rx="155" ry="50"/>
    <ellipse cx="895" cy="442" rx="96" ry="55"/>
  </g>
  <path d="M0 1280 C170 1155 330 1168 485 1258 C650 1355 810 1280 1080 1165 L1080 1920 L0 1920 Z" fill="#5ecf99" opacity=".96"/>
  <path d="M0 1438 C195 1315 360 1368 520 1458 C690 1553 840 1485 1080 1355 L1080 1920 L0 1920 Z" fill="#2e9b75" opacity=".82"/>
  <path d="M175 1710 C360 1460 620 1320 870 1218" fill="none" stroke="#fff7c5" stroke-width="38" stroke-linecap="round" opacity=".9"/>
  <path d="M175 1710 C360 1460 620 1320 870 1218" fill="none" stroke="#ff9acb" stroke-width="10" stroke-linecap="round" opacity=".54" stroke-dasharray="24 34"/>
  <g fill="#fff5b8" opacity=".86">
    <circle cx="212" cy="236" r="5"/><circle cx="305" cy="146" r="4"/><circle cx="122" cy="520" r="6"/>
    <circle cx="930" cy="620" r="5"/><circle cx="720" cy="310" r="4"/><circle cx="518" cy="184" r="6"/>
  </g>
  <g transform="translate(70 860)">
    <rect x="0" y="188" width="245" height="270" rx="38" fill="#7b4fc6"/>
    <rect x="42" y="118" width="166" height="210" rx="28" fill="#ffd789"/>
    <path d="M18 200 L122 82 L226 200 Z" fill="#ff86bd"/>
    <rect x="84" y="278" width="82" height="180" rx="26" fill="#442468"/>
  </g>
  <g transform="translate(760 885)">
    <rect x="0" y="130" width="210" height="315" rx="36" fill="#5f78d9"/>
    <path d="M28 130 L105 35 L182 130 Z" fill="#a9edff"/>
    <rect x="72" y="242" width="66" height="203" rx="22" fill="#34235c"/>
    <circle cx="105" cy="190" r="35" fill="#fff3a8"/>
  </g>
</svg>
