<svg xmlns="http://www.w3.org/2000/svg" width="760" height="760" viewBox="0 0 760 760" role="img" aria-label="cute baby librarian mascot">
  <defs>
    <linearGradient id="robe" x1="0" x2="1" y1="0" y2="1">
      <stop offset="0" stop-color="#9d72ff"/>
      <stop offset="1" stop-color="#ff87bd"/>
    </linearGradient>
    <linearGradient id="book" x1="0" x2="1" y1="0" y2="1">
      <stop offset="0" stop-color="#fff099"/>
      <stop offset="1" stop-color="#ffb06e"/>
    </linearGradient>
    <filter id="shadow" x="-20%" y="-20%" width="140%" height="140%">
      <feDropShadow dx="0" dy="22" stdDeviation="18" flood-color="#4b256a" flood-opacity=".28"/>
    </filter>
  </defs>
  <g filter="url(#shadow)">
    <ellipse cx="382" cy="658" rx="188" ry="44" fill="#5b357c" opacity=".28"/>
    <path d="M226 412c-74 54-118 136-112 212 9 108 134 114 266 114s258-6 266-114c6-76-38-158-112-212z" fill="url(#robe)"/>
    <path d="M230 420c34 48 88 74 150 74s116-26 150-74c20 44 26 98 12 148-28 96-296 96-324 0-14-50-8-104 12-148z" fill="#ffe6f2" opacity=".28"/>
    <circle cx="250" cy="440" r="44" fill="#ffd6ba"/>
    <circle cx="510" cy="440" r="44" fill="#ffd6ba"/>
    <path d="M210 278c-10-118 62-206 170-206s180 88 170 206c-8 102-72 178-170 178s-162-76-170-178z" fill="#ffd9bd"/>
    <path d="M220 252c-22-80 30-184 150-196 78-8 150 36 178 102 18 42 20 96 6 132-44-82-128-98-218-70-48 16-86 22-116 32z" fill="#6a3ca0"/>
    <path d="M246 260c58-98 186-94 278 8-22-96-82-160-172-160-72 0-122 50-106 152z" fill="#8b5ce6" opacity=".82"/>
    <circle cx="314" cy="304" r="18" fill="#432458"/>
    <circle cx="446" cy="304" r="18" fill="#432458"/>
    <circle cx="320" cy="296" r="6" fill="#fff"/>
    <circle cx="452" cy="296" r="6" fill="#fff"/>
    <path d="M340 372c26 22 56 22 82 0" stroke="#9b4f6b" stroke-width="12" stroke-linecap="round" fill="none"/>
    <circle cx="282" cy="350" r="22" fill="#ff9fc5" opacity=".52"/>
    <circle cx="478" cy="350" r="22" fill="#ff9fc5" opacity=".52"/>
    <path d="M312 504c38-34 96-34 136 0v150c-42 30-98 30-136 0z" fill="url(#book)"/>
    <path d="M380 498v178" stroke="#7f4a5e" stroke-width="8" stroke-linecap="round" opacity=".42"/>
    <path d="M322 540h42M322 574h36M400 540h44M404 574h32" stroke="#9e5c64" stroke-width="8" stroke-linecap="round" opacity=".5"/>
    <path d="M206 164l34 14 28-26-4 38 34 18-36 8-8 38-20-32-38 4 24-30z" fill="#fff09a"/>
    <path d="M520 124l22 12 22-16-2 28 24 14-28 6-6 28-15-24-28 2 19-20z" fill="#95e8ff"/>
  </g>
</svg>
