<svg xmlns="http://www.w3.org/2000/svg" viewBox="0 0 128 128" role="img" aria-label="드래곤 알">
  <defs>
    <radialGradient id="bg" cx="28%" cy="18%" r="88%">
      <stop offset="0" stop-color="#ffffff" stop-opacity="0.22"/>
      <stop offset="0.36" stop-color="#fb923c" stop-opacity="0.22"/>
      <stop offset="1" stop-color="#140b25"/>
    </radialGradient>
    <filter id="shadow" x="-20%" y="-20%" width="140%" height="140%">
      <feDropShadow dx="0" dy="8" stdDeviation="7" flood-color="#000" flood-opacity="0.35"/>
    </filter>
  </defs>
  <rect width="128" height="128" rx="28" fill="url(#bg)"/>
  <rect x="7" y="7" width="114" height="114" rx="24" fill="none" stroke="#fff8ee" stroke-opacity="0.18" stroke-width="2"/>
  <g filter="url(#shadow)">
    <path d="M64 26c22 0 36 34 36 62 0 24-14 39-36 39s-36-15-36-39c0-28 14-62 36-62z" fill="#fb923c"/><path d="M42 82l13-12 11 14 13-16 13 14" stroke="#fef08a" stroke-width="7" fill="none" stroke-linecap="round"/><circle cx="54" cy="55" r="6" fill="#fff8ee" opacity=".65"/>
  </g>
  <path d="M18 108c25 10 66 10 92 0" stroke="#fff8ee" stroke-opacity="0.18" stroke-width="5" stroke-linecap="round"/>
</svg>
