<svg xmlns="http://www.w3.org/2000/svg" viewBox="0 0 128 128" role="img" aria-label="시간 모래">
  <defs>
    <radialGradient id="bg" cx="28%" cy="18%" r="88%">
      <stop offset="0" stop-color="#ffffff" stop-opacity="0.22"/>
      <stop offset="0.36" stop-color="#f59e0b" stop-opacity="0.22"/>
      <stop offset="1" stop-color="#140b25"/>
    </radialGradient>
    <filter id="shadow" x="-20%" y="-20%" width="140%" height="140%">
      <feDropShadow dx="0" dy="8" stdDeviation="7" flood-color="#000" flood-opacity="0.35"/>
    </filter>
  </defs>
  <rect width="128" height="128" rx="28" fill="url(#bg)"/>
  <rect x="7" y="7" width="114" height="114" rx="24" fill="none" stroke="#fff8ee" stroke-opacity="0.18" stroke-width="2"/>
  <g filter="url(#shadow)">
    <path d="M42 28h44M42 124h44M48 36c0 28 28 28 28 44s-28 16-28 44M80 36c0 28-28 28-28 44s28 16 28 44" fill="none" stroke="#c084fc" stroke-width="7" stroke-linecap="round"/><path d="M55 52h18l-9 13zM54 112h20l-10-20z" fill="#f59e0b"/>
  </g>
  <path d="M18 108c25 10 66 10 92 0" stroke="#fff8ee" stroke-opacity="0.18" stroke-width="5" stroke-linecap="round"/>
</svg>
