<svg xmlns="http://www.w3.org/2000/svg" viewBox="0 0 128 128" role="img" aria-label="마법서">
  <defs>
    <radialGradient id="bg" cx="28%" cy="18%" r="88%">
      <stop offset="0" stop-color="#ffffff" stop-opacity="0.22"/>
      <stop offset="0.36" stop-color="#6f5cff" stop-opacity="0.22"/>
      <stop offset="1" stop-color="#140b25"/>
    </radialGradient>
    <filter id="shadow" x="-20%" y="-20%" width="140%" height="140%">
      <feDropShadow dx="0" dy="8" stdDeviation="7" flood-color="#000" flood-opacity="0.35"/>
    </filter>
  </defs>
  <rect width="128" height="128" rx="28" fill="url(#bg)"/>
  <rect x="7" y="7" width="114" height="114" rx="24" fill="none" stroke="#fff8ee" stroke-opacity="0.18" stroke-width="2"/>
  <g filter="url(#shadow)">
    <path d="M34 32h42c7 0 12 5 12 12v66c0 6-5 10-11 10H34z" fill="#6f5cff"/><path d="M34 32h42c7 0 12 5 12 12v66c0 6-5 10-11 10H34z" fill="none" stroke="#ffd88a" stroke-width="6"/><path d="M48 48h25M48 66h27M48 84h22" stroke="#fff8ee" stroke-width="5" stroke-linecap="round"/>
  </g>
  <path d="M18 108c25 10 66 10 92 0" stroke="#fff8ee" stroke-opacity="0.18" stroke-width="5" stroke-linecap="round"/>
</svg>
