<svg xmlns="http://www.w3.org/2000/svg" viewBox="0 0 128 128" role="img" aria-label="고대 두루마리">
  <defs>
    <radialGradient id="bg" cx="28%" cy="18%" r="88%">
      <stop offset="0" stop-color="#ffffff" stop-opacity="0.22"/>
      <stop offset="0.36" stop-color="#f97316" stop-opacity="0.22"/>
      <stop offset="1" stop-color="#140b25"/>
    </radialGradient>
    <filter id="shadow" x="-20%" y="-20%" width="140%" height="140%">
      <feDropShadow dx="0" dy="8" stdDeviation="7" flood-color="#000" flood-opacity="0.35"/>
    </filter>
  </defs>
  <rect width="128" height="128" rx="28" fill="url(#bg)"/>
  <rect x="7" y="7" width="114" height="114" rx="24" fill="none" stroke="#fff8ee" stroke-opacity="0.18" stroke-width="2"/>
  <g filter="url(#shadow)">
    <path d="M36 39h58c8 0 14 6 14 14s-6 14-14 14H44c-8 0-14-6-14-14s6-14 14-14z" fill="#93c5fd"/><path d="M36 61v42c0 9 7 16 16 16h42" fill="none" stroke="#f97316" stroke-width="11" stroke-linecap="round"/><path d="M49 83h38M49 100h30" stroke="#241035" stroke-width="5" opacity=".55"/>
  </g>
  <path d="M18 108c25 10 66 10 92 0" stroke="#fff8ee" stroke-opacity="0.18" stroke-width="5" stroke-linecap="round"/>
</svg>
