<svg xmlns="http://www.w3.org/2000/svg" viewBox="0 0 128 128" role="img" aria-label="별자리 조각">
  <defs>
    <radialGradient id="bg" cx="28%" cy="18%" r="88%">
      <stop offset="0" stop-color="#ffffff" stop-opacity="0.22"/>
      <stop offset="0.36" stop-color="#818cf8" stop-opacity="0.22"/>
      <stop offset="1" stop-color="#140b25"/>
    </radialGradient>
    <filter id="shadow" x="-20%" y="-20%" width="140%" height="140%">
      <feDropShadow dx="0" dy="8" stdDeviation="7" flood-color="#000" flood-opacity="0.35"/>
    </filter>
  </defs>
  <rect width="128" height="128" rx="28" fill="url(#bg)"/>
  <rect x="7" y="7" width="114" height="114" rx="24" fill="none" stroke="#fff8ee" stroke-opacity="0.18" stroke-width="2"/>
  <g filter="url(#shadow)">
    <path d="M64 24l11 28 30 3-23 20 7 30-25-16-25 16 7-30-23-20 30-3z" fill="#f472b6"/><path d="M36 36l6 9 10 2-8 7 2 10-10-5-9 5 2-10-8-7 10-2z" fill="#818cf8" opacity=".85"/>
  </g>
  <path d="M18 108c25 10 66 10 92 0" stroke="#fff8ee" stroke-opacity="0.18" stroke-width="5" stroke-linecap="round"/>
</svg>
